<?xml version="1.0" encoding="UTF-8" standalone="no"?>
<!DOCTYPE svg PUBLIC "-//W3C//DTD SVG 1.1//EN" "http://www.w3.org/Graphics/SVG/1.1/DTD/svg11.dtd">
<svg version="1.1" xmlns="http://www.w3.org/2000/svg" xmlns:xlink="http://www.w3.org/1999/xlink" preserveAspectRatio="xMidYMid meet" viewBox="0 0 640 640" width="640" height="640"><defs><path d="" id="a259cnyy86"></path><path d="" id="a8FfL8f6A9"></path><path d="" id="f2HXXdtu40"></path><path d="M0 0L753.89 0L753.89 45.24C709.68 124.11 587.72 161.33 388.01 156.91C188.31 152.49 58.97 224.73 0 373.63L0 0Z" id="a3aWgCeu3B"></path><path d="M364.8 341.64L364.76 359.64L346.76 359.6L346.8 341.6L364.8 341.64ZM361.05 353.18C360.5 352.92 359.88 352.74 359.7 352.32C359.63 352.08 359.62 351.94 359.67 351.79C359.78 351.31 360.36 351.17 360.81 351.3C361.1 351.39 361.37 351.62 361.54 351.98C362.31 351.47 362.31 351.47 362.85 351.14C362.65 350.82 362.55 350.69 362.42 350.55C361.94 350.02 361.32 349.75 360.29 349.77C360.24 349.78 359.82 349.83 359.76 349.84C359.26 349.96 358.77 350.23 358.48 350.59C357.62 351.56 357.87 353.24 358.9 353.94C359.92 354.71 361.42 354.88 361.61 355.6C361.79 356.48 360.95 356.76 360.13 356.66C359.52 356.52 359.19 356.22 358.82 355.65C358.68 355.73 357.58 356.36 357.44 356.44C357.6 356.8 357.78 356.96 358.05 357.27C359.35 358.59 362.61 358.53 363.2 356.53C363.22 356.46 363.38 356 363.26 355.29C363.26 355.29 363.27 355.31 363.3 355.34L363.3 355.34C362.85 354.33 362.1 353.61 361.05 353.18ZM354.88 349.89C354.88 351.34 354.87 352.79 354.87 354.24C354.87 355.17 354.91 356.01 354.76 356.28C354.51 356.79 353.87 356.72 353.58 356.63C353.29 356.49 353.14 356.28 352.96 355.99C352.91 355.91 352.88 355.84 352.87 355.84C352.73 355.93 351.63 356.6 351.5 356.68C351.73 357.16 352.06 357.56 352.49 357.82C353.13 358.21 353.99 358.33 354.89 358.13C355.48 357.96 355.99 357.62 356.25 357.08C356.64 356.38 356.56 355.53 356.56 354.57C356.57 353.03 356.56 351.49 356.57 349.93C356.57 349.93 356.57 349.92 356.57 349.89L356.57 349.89C355.56 349.89 355 349.89 354.88 349.89Z" id="fWL6TvE8n"></path><path d="M322.6 348.32C321.39 348.32 320.4 349.31 320.4 350.52C320.4 351.74 321.39 352.72 322.6 352.72C323.81 352.72 324.8 351.74 324.8 350.52C324.8 349.31 323.81 348.32 322.6 348.32Z" id="n518qkvitA"></path><path d="M315.96 354.77C312.35 353.85 310.28 352.3 310.28 350.52C310.28 348.73 312.35 347.18 315.96 346.27C316 346.26 316.16 346.22 316.45 346.15C316.53 346.43 316.58 346.59 316.59 346.63C316.95 347.89 317.42 349.12 317.98 350.3C317.99 350.31 318.03 350.39 318.09 350.52C318.03 350.65 317.99 350.72 317.98 350.74C317.42 351.92 316.95 353.15 316.59 354.41C316.58 354.44 316.53 354.6 316.45 354.89L316.45 354.89C316.16 354.82 316 354.77 315.96 354.77ZM311.31 350.52C311.31 351.69 312.99 352.87 315.74 353.64C316.08 352.57 316.48 351.53 316.95 350.52C316.48 349.5 316.07 348.46 315.74 347.39C313 348.16 311.31 349.34 311.31 350.52ZM328.62 354.41C328.25 353.15 327.78 351.92 327.22 350.73C327.21 350.72 327.17 350.65 327.11 350.52C327.17 350.38 327.21 350.31 327.22 350.3C327.78 349.11 328.25 347.88 328.62 346.62C328.62 346.59 328.67 346.43 328.75 346.14C329.04 346.22 329.2 346.26 329.24 346.27C332.85 347.18 334.92 348.73 334.92 350.52C334.92 352.3 332.85 353.85 329.24 354.77C329.2 354.77 329.04 354.82 328.75 354.89C328.67 354.6 328.62 354.44 328.62 354.41ZM329.46 353.64C332.21 352.87 333.89 351.69 333.89 350.52C333.89 349.34 332.21 348.16 329.46 347.39C329.12 348.46 328.72 349.5 328.25 350.52C328.25 350.52 328.25 350.52 328.25 350.52C328.85 351.93 329.25 352.97 329.46 353.64Z" id="a34bO7dAvm"></path><path d="M315.6 346.9C314.58 343.32 314.89 340.76 316.44 339.87C317.96 338.99 320.41 340.03 322.97 342.65C322.99 342.68 323.11 342.8 323.32 343.01C323.11 343.23 322.99 343.35 322.97 343.37C322.06 344.32 321.23 345.34 320.48 346.42C320.47 346.43 320.43 346.5 320.34 346.62C320.2 346.63 320.12 346.64 320.1 346.64C318.79 346.74 317.49 346.95 316.22 347.26C316.18 347.27 316.02 347.31 315.73 347.38L315.73 347.38C315.65 347.1 315.61 346.94 315.6 346.9ZM316.95 340.76C315.93 341.34 315.76 343.39 316.46 346.15C317.55 345.91 318.66 345.73 319.77 345.63C320.42 344.72 321.12 343.85 321.88 343.02C320.28 341.46 318.77 340.58 317.68 340.58C317.68 340.58 317.68 340.58 317.68 340.58C317.33 340.62 317.09 340.68 316.95 340.76ZM327.52 361.48C326.06 361.48 324.18 360.38 322.23 358.38C322.21 358.35 322.09 358.23 321.88 358.02C322.09 357.81 322.21 357.69 322.23 357.66C323.14 356.71 323.97 355.69 324.72 354.61C324.73 354.6 324.77 354.54 324.86 354.42C325 354.4 325.08 354.4 325.1 354.39C326.41 354.29 327.71 354.08 328.98 353.77C329.01 353.76 329.18 353.72 329.47 353.65C329.55 353.94 329.6 354.1 329.6 354.13C330.62 357.7 330.31 360.27 328.76 361.17C328.38 361.38 327.96 361.49 327.52 361.48C327.52 361.48 327.52 361.48 327.52 361.48C327.52 361.48 327.52 361.48 327.52 361.48ZM327.52 360.46C327.52 360.46 327.52 360.46 327.52 360.46C327.8 360.46 328.04 360.39 328.25 360.28C329.27 359.69 329.45 357.64 328.74 354.88C327.65 355.12 326.54 355.3 325.42 355.4C324.78 356.31 324.08 357.19 323.32 358.01C324.92 359.57 326.44 360.46 327.52 360.46Z" id="i134cs3gKU"></path><path d="M328.98 347.26C327.71 346.95 326.41 346.74 325.1 346.64C325.08 346.63 325 346.63 324.86 346.61C324.77 346.49 324.73 346.43 324.72 346.41C323.98 345.33 323.14 344.32 322.23 343.37C322.21 343.35 322.09 343.23 321.88 343.01C322.09 342.8 322.21 342.68 322.23 342.65C324.79 340.03 327.24 338.99 328.76 339.87C330.31 340.76 330.62 343.33 329.6 346.9C329.6 346.94 329.55 347.1 329.47 347.38L329.47 347.38C329.18 347.31 329.01 347.27 328.98 347.26ZM328.74 346.15C329.45 343.39 329.27 341.34 328.25 340.76C327.23 340.17 325.32 341.07 323.32 343.02C324.08 343.85 324.78 344.72 325.42 345.63C326.6 345.74 327.71 345.92 328.74 346.15ZM316.44 361.17C314.89 360.27 314.58 357.71 315.6 354.13C315.6 354.1 315.65 353.94 315.73 353.65C316.02 353.72 316.18 353.76 316.21 353.77C317.4 354.07 318.71 354.28 320.1 354.39C320.12 354.4 320.2 354.4 320.34 354.42C320.42 354.54 320.47 354.6 320.48 354.61C321.22 355.69 322.05 356.71 322.96 357.66C322.99 357.69 323.1 357.81 323.31 358.02C323.1 358.23 322.99 358.35 322.96 358.38C321.02 360.38 319.14 361.48 317.68 361.48C317.68 361.48 317.68 361.48 317.68 361.48C317.11 361.41 316.69 361.31 316.44 361.17ZM316.95 360.28C317.97 360.86 319.87 359.96 321.88 358.01C321.12 357.19 320.42 356.31 319.77 355.4C318.66 355.3 317.55 355.13 316.46 354.88C316.46 354.88 316.46 354.88 316.46 354.88C316.11 358.09 316.27 359.89 316.95 360.28Z" id="gnhDoDGtx"></path><path d="M320.02 355.42C320 355.42 319.92 355.41 319.77 355.4C319.69 355.28 319.65 355.21 319.64 355.2C319.15 354.5 318.68 353.77 318.25 353.02C317.82 352.28 317.42 351.51 317.05 350.73C317.05 350.72 317.01 350.65 316.95 350.52C317.01 350.38 317.05 350.31 317.05 350.3C317.42 349.52 317.82 348.76 318.25 348.01C318.68 347.28 319.14 346.54 319.64 345.83C319.65 345.82 319.69 345.75 319.77 345.63C319.92 345.62 320 345.61 320.02 345.61C321.74 345.47 323.46 345.47 325.18 345.61C325.2 345.61 325.28 345.62 325.42 345.64C325.5 345.75 325.55 345.82 325.56 345.83C326.54 347.25 327.41 348.74 328.15 350.3C328.15 350.31 328.19 350.39 328.25 350.52C328.19 350.65 328.15 350.72 328.15 350.74C327.41 352.3 326.55 353.79 325.56 355.2C325.55 355.21 325.5 355.28 325.42 355.4C325.28 355.41 325.2 355.42 325.18 355.42C324.31 355.49 323.44 355.53 322.6 355.53C322.6 355.53 322.6 355.53 322.6 355.53C321.46 355.5 320.6 355.47 320.02 355.42ZM324.86 354.42C325.71 353.17 326.46 351.87 327.11 350.52C326.46 349.16 325.71 347.86 324.86 346.62C323.35 346.5 321.85 346.5 320.34 346.62C319.5 347.86 318.74 349.16 318.09 350.52C318.74 351.87 319.5 353.17 320.34 354.42C320.34 354.42 320.34 354.42 320.34 354.42C322.34 354.49 323.84 354.49 324.86 354.42Z" id="d1gjU0DOr7"></path><path d="M296.69 342.8L295.27 358.83L288.87 360.64L282.5 358.83L281.07 342.8L296.69 342.8ZM283.98 346.08L284.14 348.03L291.67 348.03L291.48 350.05L286.54 350.05L286.72 351.96L291.32 351.96L291.05 354.58L288.88 355.18L286.69 354.58L286.54 353.01L284.6 353.01L284.82 355.87L288.88 357.14L292.88 356L293.78 346.08L293.78 346.08L283.98 346.08Z" id="c1HuwcPGXT"></path></defs><g><g><g><g><use xlink:href="#a259cnyy86" opacity="1" fill-opacity="0" stroke="#000000" stroke-width="1" stroke-opacity="1"></use></g></g><g><g><use xlink:href="#a8FfL8f6A9" opacity="1" fill-opacity="0" stroke="#000000" stroke-width="1" stroke-opacity="1"></use></g></g><g><g><use xlink:href="#f2HXXdtu40" opacity="1" fill-opacity="0" stroke="#000000" stroke-width="1" stroke-opacity="1"></use></g></g><g><use xlink:href="#a3aWgCeu3B" opacity="1" fill="#85ff81" fill-opacity="1"></use><g><use xlink:href="#a3aWgCeu3B" opacity="1" fill-opacity="0" stroke="#000000" stroke-width="1" stroke-opacity="1"></use></g></g><g><use xlink:href="#fWL6TvE8n" opacity="1" fill="#515151" fill-opacity="1"></use><g><use xlink:href="#fWL6TvE8n" opacity="1" fill-opacity="0" stroke="#000000" stroke-width="1" stroke-opacity="0"></use></g></g><g><use xlink:href="#n518qkvitA" opacity="1" fill="#515151" fill-opacity="1"></use><g><use xlink:href="#n518qkvitA" opacity="1" fill-opacity="0" stroke="#000000" stroke-width="1" stroke-opacity="0"></use></g></g><g><use xlink:href="#a34bO7dAvm" opacity="1" fill="#515151" fill-opacity="1"></use><g><use xlink:href="#a34bO7dAvm" opacity="1" fill-opacity="0" stroke="#000000" stroke-width="1" stroke-opacity="0"></use></g></g><g><use xlink:href="#i134cs3gKU" opacity="1" fill="#515151" fill-opacity="1"></use><g><use xlink:href="#i134cs3gKU" opacity="1" fill-opacity="0" stroke="#000000" stroke-width="1" stroke-opacity="0"></use></g></g><g><use xlink:href="#gnhDoDGtx" opacity="1" fill="#515151" fill-opacity="1"></use><g><use xlink:href="#gnhDoDGtx" opacity="1" fill-opacity="0" stroke="#000000" stroke-width="1" stroke-opacity="0"></use></g></g><g><use xlink:href="#d1gjU0DOr7" opacity="1" fill="#515151" fill-opacity="1"></use><g><use xlink:href="#d1gjU0DOr7" opacity="1" fill-opacity="0" stroke="#000000" stroke-width="1" stroke-opacity="0"></use></g></g><g><use xlink:href="#c1HuwcPGXT" opacity="1" fill="#515151" fill-opacity="1"></use><g><use xlink:href="#c1HuwcPGXT" opacity="1" fill-opacity="0" stroke="#000000" stroke-width="1" stroke-opacity="0"></use></g></g></g></g></svg>